<svg id="magic-star" xmlns="http://www.w3.org/2000/svg" xmlns:xlink="http://www.w3.org/1999/xlink" width="51.539"
     height="51.539" viewBox="0 0 51.539 51.539">
  <defs>
    <linearGradient id="linear-gradient" x1="0.1" y1="0.083" x2="0.755" y2="0.675" gradientUnits="objectBoundingBox">
      <stop offset="0" stop-color="#ffc7c7"/>
      <stop offset="1" stop-color="#ffb7b7"/>
    </linearGradient>
  </defs>
  <path id="Vector" d="M0,0H51.539V51.539H0Z" fill="none" opacity="0"/>
  <path id="Vector-2" data-name="Vector"
        d="M32.617,4.6l-.15,8.139A4.468,4.468,0,0,0,34.056,16l5.326,4.037c3.414,2.577,2.856,5.734-1.224,7.022l-6.936,2.169a4.476,4.476,0,0,0-2.684,2.813l-1.654,6.314c-1.31,4.982-4.574,5.476-7.28,1.1l-3.78-6.12a4.42,4.42,0,0,0-3.608-1.89L5.044,31.8C-.089,32.062-1.549,29.1,1.8,25.19l4.252-4.939a4.469,4.469,0,0,0,.795-3.8L4.657,9.492c-1.267-4.08,1.009-6.335,5.068-5L16.06,6.571a4.481,4.481,0,0,0,3.586-.558l6.614-4.767C29.847-1.31,32.7.193,32.617,4.6Z"
        transform="translate(4.513 4.295)" fill="url(#linear-gradient)"/>
  <path id="Vector-3" data-name="Vector"
        d="M9.25,6.974,2.743.467A1.61,1.61,0,0,0,.467,2.743L6.974,9.25a1.607,1.607,0,0,0,2.276,0A1.62,1.62,0,0,0,9.25,6.974Z"
        transform="translate(36.792 36.985)" fill="url(#linear-gradient)"/>
</svg>
